<?xml version="1.0" encoding="us-ascii" standalone="no"?><svg xmlns="http://www.w3.org/2000/svg" xmlns:xlink="http://www.w3.org/1999/xlink" contentStyleType="text/css" height="780px" preserveAspectRatio="none" style="width:2547px;height:780px;background:#FFFFFF;" version="1.1" viewBox="0 0 2547 780" width="2547px" zoomAndPan="magnify"><defs/><g><g id="elem_ClienteJuridico"><rect fill="#F1F1F1" height="117.9297" style="stroke:#181818;stroke-width:0.5;" width="304" x="9" y="520.34"/><text fill="#000000" font-family="sans-serif" font-size="14" lengthAdjust="spacing" textLength="97" x="112.5" y="535.3351">ClienteJuridico</text><line style="stroke:#181818;stroke-width:0.5;" x1="10" x2="312" y1="540.6369" y2="540.6369"/><rect fill="none" height="6" style="stroke:#C82930;stroke-width:1.0;" width="6" x="17" y="551.2853"/><text fill="#000000" font-family="sans-serif" font-size="14" lengthAdjust="spacing" textLength="74" x="29" y="557.632">cuit: String</text><rect fill="none" height="6" style="stroke:#C82930;stroke-width:1.0;" width="6" x="17" y="567.5822"/><text fill="#000000" font-family="sans-serif" font-size="14" lengthAdjust="spacing" text-decoration="underline" textLength="131" x="29" y="573.9289">descuentoJur: Real</text><ellipse cx="20" cy="586.8791" fill="#84BE84" rx="3" ry="3" style="stroke:#038048;stroke-width:1.0;"/><text fill="#000000" font-family="sans-serif" font-size="14" lengthAdjust="spacing" textLength="278" x="29" y="590.2257">ClienteJuridico(String nombre,String cuit)</text><polygon fill="#FFFF44" points="20,598.1759,24,602.1759,20,606.1759,16,602.1759" style="stroke:#B38D22;stroke-width:1.0;"/><text fill="#000000" font-family="sans-serif" font-size="14" lengthAdjust="spacing" textLength="261" x="29" y="606.5226">getDescuento(Llamada llamada): Real</text><line style="stroke:#181818;stroke-width:1.0;stroke-dasharray:1.0,2.0;" x1="10" x2="104" y1="621.9728" y2="621.9728"/><text fill="#000000" font-family="sans-serif" font-size="14" lengthAdjust="spacing" textLength="114" x="104" y="626.3195">getters y setters</text><line style="stroke:#181818;stroke-width:1.0;stroke-dasharray:1.0,2.0;" x1="218" x2="312" y1="621.9728" y2="621.9728"/></g><!--class Cliente--><g id="elem_Cliente"><rect codeLine="56" fill="#F1F1F1" height="162.2266" id="Cliente" rx="2.5" ry="2.5" style="stroke:#181818;stroke-width:0.5;" width="298" x="549" y="267.11"/><ellipse cx="669.75" cy="283.11" fill="#A9DCDF" rx="11" ry="11" style="stroke:#181818;stroke-width:1.0;"/><path d="M669.8594,278.4537 L668.7031,283.5319 L671.0313,283.5319 L669.8594,278.4537 Z M668.375,276.2194 L671.3594,276.2194 L674.7188,288.61 L672.2656,288.61 L671.5,285.5475 L668.2188,285.5475 L667.4688,288.61 L665.0313,288.61 L668.375,276.2194 Z " fill="#000000"/><text fill="#000000" font-family="sans-serif" font-size="14" font-style="italic" lengthAdjust="spacing" textLength="48" x="690.25" y="287.9567">Cliente</text><line style="stroke:#181818;stroke-width:0.5;" x1="550" x2="846" y1="299.11" y2="299.11"/><rect fill="none" height="6" style="stroke:#C82930;stroke-width:1.0;" width="6" x="557" y="309.7584"/><text fill="#000000" font-family="sans-serif" font-size="14" lengthAdjust="spacing" textLength="103" x="569" y="316.1051">nombre: String</text><rect fill="none" height="6" style="stroke:#C82930;stroke-width:1.0;" width="6" x="557" y="326.0553"/><text fill="#000000" font-family="sans-serif" font-size="14" lengthAdjust="spacing" textLength="164" x="569" y="332.402">numeroTelefono: String</text><ellipse cx="560" cy="345.3522" fill="#84BE84" rx="3" ry="3" style="stroke:#038048;stroke-width:1.0;"/><text fill="#000000" font-family="sans-serif" font-size="14" lengthAdjust="spacing" textLength="156" x="569" y="348.6989">Cliente(String nombre)</text><ellipse cx="560" cy="361.6491" fill="#84BE84" rx="3" ry="3" style="stroke:#038048;stroke-width:1.0;"/><text fill="#000000" font-family="sans-serif" font-size="14" lengthAdjust="spacing" textLength="272" x="569" y="364.9957">registrarLlamada(Llamada llamada): void</text><ellipse cx="560" cy="377.9459" fill="#84BE84" rx="3" ry="3" style="stroke:#038048;stroke-width:1.0;"/><text fill="#000000" font-family="sans-serif" font-size="14" lengthAdjust="spacing" textLength="243" x="569" y="381.2926">calcularMontoTotalLlamadas(): Real</text><polygon fill="#FFFF44" points="560,389.2428,564,393.2428,560,397.2428,556,393.2428" style="stroke:#B38D22;stroke-width:1.0;"/><text fill="#000000" font-family="sans-serif" font-size="14" font-style="italic" lengthAdjust="spacing" textLength="261" x="569" y="397.5895">getDescuento(Llamada llamada): Real</text><line style="stroke:#181818;stroke-width:1.0;stroke-dasharray:1.0,2.0;" x1="550" x2="641" y1="413.0397" y2="413.0397"/><text fill="#000000" font-family="sans-serif" font-size="14" lengthAdjust="spacing" textLength="114" x="641" y="417.3864">getters y setters</text><line style="stroke:#181818;stroke-width:1.0;stroke-dasharray:1.0,2.0;" x1="755" x2="846" y1="413.0397" y2="413.0397"/></g><g id="elem_ClienteFisico"><rect fill="#F1F1F1" height="117.9297" style="stroke:#181818;stroke-width:0.5;" width="290" x="348" y="520.34"/><text fill="#000000" font-family="sans-serif" font-size="14" lengthAdjust="spacing" textLength="87" x="449.5" y="535.3351">ClienteFisico</text><line style="stroke:#181818;stroke-width:0.5;" x1="349" x2="637" y1="540.6369" y2="540.6369"/><rect fill="none" height="6" style="stroke:#C82930;stroke-width:1.0;" width="6" x="356" y="551.2853"/><text fill="#000000" font-family="sans-serif" font-size="14" lengthAdjust="spacing" textLength="70" x="368" y="557.632">dni: String</text><rect fill="none" height="6" style="stroke:#C82930;stroke-width:1.0;" width="6" x="356" y="567.5822"/><text fill="#000000" font-family="sans-serif" font-size="14" lengthAdjust="spacing" text-decoration="underline" textLength="133" x="368" y="573.9289">descuentoFis: Real</text><ellipse cx="359" cy="586.8791" fill="#84BE84" rx="3" ry="3" style="stroke:#038048;stroke-width:1.0;"/><text fill="#000000" font-family="sans-serif" font-size="14" lengthAdjust="spacing" textLength="264" x="368" y="590.2257">ClienteFisico(String nombre,String dni)</text><polygon fill="#FFFF44" points="359,598.1759,363,602.1759,359,606.1759,355,602.1759" style="stroke:#B38D22;stroke-width:1.0;"/><text fill="#000000" font-family="sans-serif" font-size="14" lengthAdjust="spacing" textLength="261" x="368" y="606.5226">getDescuento(Llamada llamada): Real</text><line style="stroke:#181818;stroke-width:1.0;stroke-dasharray:1.0,2.0;" x1="349" x2="436" y1="621.9728" y2="621.9728"/><text fill="#000000" font-family="sans-serif" font-size="14" lengthAdjust="spacing" textLength="114" x="436" y="626.3195">getters y setters</text><line style="stroke:#181818;stroke-width:1.0;stroke-dasharray:1.0,2.0;" x1="550" x2="637" y1="621.9728" y2="621.9728"/></g><g id="elem_LlamadaInternacional"><rect fill="#F1F1F1" height="60.8906" style="stroke:#181818;stroke-width:0.5;" width="325" x="345.5" y="712.27"/><text fill="#000000" font-family="sans-serif" font-size="14" lengthAdjust="spacing" textLength="144" x="436" y="727.2651">LlamadaInternacional</text><line style="stroke:#181818;stroke-width:0.5;" x1="346.5" x2="669.5" y1="732.5669" y2="732.5669"/><polygon fill="#FFFF44" points="356.5,741.2153,360.5,745.2153,356.5,749.2153,352.5,745.2153" style="stroke:#B38D22;stroke-width:1.0;"/><text fill="#000000" font-family="sans-serif" font-size="14" lengthAdjust="spacing" textLength="177" x="365.5" y="749.562">getPrecioDuracion(): Real</text><polygon fill="#FFFF44" points="356.5,757.5122,360.5,761.5122,356.5,765.5122,352.5,761.5122" style="stroke:#B38D22;stroke-width:1.0;"/><text fill="#000000" font-family="sans-serif" font-size="14" lengthAdjust="spacing" textLength="299" x="365.5" y="765.8589">getCostoEstablecimientoDeLlamada(): Real</text></g><!--class Llamada--><g id="elem_Llamada"><rect codeLine="90" fill="#F1F1F1" height="145.9297" id="Llamada" rx="2.5" ry="2.5" style="stroke:#181818;stroke-width:0.5;" width="389" x="673.5" y="506.34"/><ellipse cx="835.75" cy="522.34" fill="#A9DCDF" rx="11" ry="11" style="stroke:#181818;stroke-width:1.0;"/><path d="M835.8594,517.6837 L834.7031,522.7619 L837.0313,522.7619 L835.8594,517.6837 Z M834.375,515.4494 L837.3594,515.4494 L840.7188,527.84 L838.2656,527.84 L837.5,524.7775 L834.2188,524.7775 L833.4688,527.84 L831.0313,527.84 L834.375,515.4494 Z " fill="#000000"/><text fill="#000000" font-family="sans-serif" font-size="14" font-style="italic" lengthAdjust="spacing" textLength="56" x="856.25" y="527.1867">Llamada</text><line style="stroke:#181818;stroke-width:0.5;" x1="674.5" x2="1061.5" y1="538.34" y2="538.34"/><rect fill="none" height="6" style="stroke:#C82930;stroke-width:1.0;" width="6" x="681.5" y="548.9884"/><text fill="#000000" font-family="sans-serif" font-size="14" lengthAdjust="spacing" textLength="118" x="693.5" y="555.3351">duracion: Integer</text><ellipse cx="684.5" cy="568.2853" fill="#84BE84" rx="3" ry="3" style="stroke:#038048;stroke-width:1.0;"/><text fill="#000000" font-family="sans-serif" font-size="14" lengthAdjust="spacing" textLength="363" x="693.5" y="571.632">Llamada(Cliente origen, Cliente destino, int duracion)</text><ellipse cx="684.5" cy="584.5822" fill="#84BE84" rx="3" ry="3" style="stroke:#038048;stroke-width:1.0;"/><text fill="#000000" font-family="sans-serif" font-size="14" lengthAdjust="spacing" textLength="201" x="693.5" y="587.9289">calcularMontoLlamada(): Real</text><polygon fill="#FFFF44" points="684.5,595.8791,688.5,599.8791,684.5,603.8791,680.5,599.8791" style="stroke:#B38D22;stroke-width:1.0;"/><text fill="#000000" font-family="sans-serif" font-size="14" font-style="italic" lengthAdjust="spacing" textLength="177" x="693.5" y="604.2257">getPrecioDuracion(): Real</text><polygon fill="#FFFF44" points="684.5,612.1759,688.5,616.1759,684.5,620.1759,680.5,616.1759" style="stroke:#B38D22;stroke-width:1.0;"/><text fill="#000000" font-family="sans-serif" font-size="14" font-style="italic" lengthAdjust="spacing" textLength="299" x="693.5" y="620.5226">getCostoEstablecimientoDeLlamada(): Real</text><line style="stroke:#181818;stroke-width:1.0;stroke-dasharray:1.0,2.0;" x1="674.5" x2="843" y1="635.9728" y2="635.9728"/><text fill="#000000" font-family="sans-serif" font-size="14" lengthAdjust="spacing" textLength="50" x="843" y="640.3195">getters</text><line style="stroke:#181818;stroke-width:1.0;stroke-dasharray:1.0,2.0;" x1="893" x2="1061.5" y1="635.9728" y2="635.9728"/></g><g id="elem_LlamadaNacional"><rect fill="#F1F1F1" height="60.8906" style="stroke:#181818;stroke-width:0.5;" width="325" x="705.5" y="712.27"/><text fill="#000000" font-family="sans-serif" font-size="14" lengthAdjust="spacing" textLength="114" x="811" y="727.2651">LlamadaNacional</text><line style="stroke:#181818;stroke-width:0.5;" x1="706.5" x2="1029.5" y1="732.5669" y2="732.5669"/><polygon fill="#FFFF44" points="716.5,741.2153,720.5,745.2153,716.5,749.2153,712.5,745.2153" style="stroke:#B38D22;stroke-width:1.0;"/><text fill="#000000" font-family="sans-serif" font-size="14" lengthAdjust="spacing" textLength="177" x="725.5" y="749.562">getPrecioDuracion(): Real</text><polygon fill="#FFFF44" points="716.5,757.5122,720.5,761.5122,716.5,765.5122,712.5,761.5122" style="stroke:#B38D22;stroke-width:1.0;"/><text fill="#000000" font-family="sans-serif" font-size="14" lengthAdjust="spacing" textLength="299" x="725.5" y="765.8589">getCostoEstablecimientoDeLlamada(): Real</text></g><!--class IEstrategiaGeneradora--><g id="elem_IEstrategiaGeneradora"><rect codeLine="34" fill="#F1F1F1" height="64.2969" id="IEstrategiaGeneradora" rx="2.5" ry="2.5" style="stroke:#181818;stroke-width:0.5;" width="468" x="1502" y="547.16"/><ellipse cx="1654.75" cy="563.16" fill="#B4A7E5" rx="11" ry="11" style="stroke:#181818;stroke-width:1.0;"/><path d="M1650.6719,558.9256 L1650.6719,556.7694 L1658.0625,556.7694 L1658.0625,558.9256 L1655.5938,558.9256 L1655.5938,567.0038 L1658.0625,567.0038 L1658.0625,569.16 L1650.6719,569.16 L1650.6719,567.0038 L1653.1406,567.0038 L1653.1406,558.9256 L1650.6719,558.9256 Z " fill="#000000"/><text fill="#000000" font-family="sans-serif" font-size="14" font-style="italic" lengthAdjust="spacing" textLength="154" x="1675.25" y="568.0067">IEstrategiaGeneradora</text><line style="stroke:#181818;stroke-width:0.5;" x1="1503" x2="1969" y1="579.16" y2="579.16"/><line style="stroke:#181818;stroke-width:0.5;" x1="1503" x2="1969" y1="587.16" y2="587.16"/><ellipse cx="1513" cy="600.8084" fill="#84BE84" rx="3" ry="3" style="stroke:#038048;stroke-width:1.0;"/><text fill="#000000" font-family="sans-serif" font-size="14" font-style="italic" lengthAdjust="spacing" textLength="442" x="1522" y="604.1551">obtenerNumeroLibre(GestorNumerosDisponibles gestor): String</text></g><g id="elem_ObtenerPrimero"><rect fill="#F1F1F1" height="44.5938" style="stroke:#181818;stroke-width:0.5;" width="468" x="1066" y="720.42"/><text fill="#000000" font-family="sans-serif" font-size="14" lengthAdjust="spacing" textLength="110" x="1245" y="735.4151">ObtenerPrimero</text><line style="stroke:#181818;stroke-width:0.5;" x1="1067" x2="1533" y1="740.7169" y2="740.7169"/><ellipse cx="1077" cy="754.3653" fill="#84BE84" rx="3" ry="3" style="stroke:#038048;stroke-width:1.0;"/><text fill="#000000" font-family="sans-serif" font-size="14" lengthAdjust="spacing" textLength="442" x="1086" y="757.712">obtenerNumeroLibre(GestorNumerosDisponibles gestor): String</text></g><g id="elem_ObtenerUltimo"><rect fill="#F1F1F1" height="44.5938" style="stroke:#181818;stroke-width:0.5;" width="468" x="1569" y="720.42"/><text fill="#000000" font-family="sans-serif" font-size="14" lengthAdjust="spacing" textLength="100" x="1753" y="735.4151">ObtenerUltimo</text><line style="stroke:#181818;stroke-width:0.5;" x1="1570" x2="2036" y1="740.7169" y2="740.7169"/><ellipse cx="1580" cy="754.3653" fill="#84BE84" rx="3" ry="3" style="stroke:#038048;stroke-width:1.0;"/><text fill="#000000" font-family="sans-serif" font-size="14" lengthAdjust="spacing" textLength="442" x="1589" y="757.712">obtenerNumeroLibre(GestorNumerosDisponibles gestor): String</text></g><g id="elem_ObtenerAleatorio"><rect fill="#F1F1F1" height="44.5938" style="stroke:#181818;stroke-width:0.5;" width="468" x="2072" y="720.42"/><text fill="#000000" font-family="sans-serif" font-size="14" lengthAdjust="spacing" textLength="117" x="2247.5" y="735.4151">ObtenerAleatorio</text><line style="stroke:#181818;stroke-width:0.5;" x1="2073" x2="2539" y1="740.7169" y2="740.7169"/><ellipse cx="2083" cy="754.3653" fill="#84BE84" rx="3" ry="3" style="stroke:#038048;stroke-width:1.0;"/><text fill="#000000" font-family="sans-serif" font-size="14" lengthAdjust="spacing" textLength="442" x="2092" y="757.712">obtenerNumeroLibre(GestorNumerosDisponibles gestor): String</text></g><g id="elem_GestorNumerosDisponibles"><rect fill="#F1F1F1" height="126.0781" style="stroke:#181818;stroke-width:0.5;" width="421" x="1325.5" y="285.19"/><text fill="#000000" font-family="sans-serif" font-size="14" lengthAdjust="spacing" textLength="191" x="1440.5" y="300.1851">GestorNumerosDisponibles</text><line style="stroke:#181818;stroke-width:0.5;" x1="1326.5" x2="1745.5" y1="305.4869" y2="305.4869"/><rect fill="none" height="6" style="stroke:#C82930;stroke-width:1.0;" width="6" x="1333.5" y="316.1353"/><text fill="#000000" font-family="sans-serif" font-size="14" lengthAdjust="spacing" textLength="182" x="1345.5" y="322.482">lineas: SortedSet&lt;String&gt;</text><ellipse cx="1336.5" cy="335.4322" fill="#84BE84" rx="3" ry="3" style="stroke:#038048;stroke-width:1.0;"/><text fill="#000000" font-family="sans-serif" font-size="14" lengthAdjust="spacing" textLength="343" x="1345.5" y="338.7789">agregarNumeroTelefono(String numero): Boolean</text><ellipse cx="1336.5" cy="351.7291" fill="#84BE84" rx="3" ry="3" style="stroke:#038048;stroke-width:1.0;"/><text fill="#000000" font-family="sans-serif" font-size="14" lengthAdjust="spacing" textLength="202" x="1345.5" y="355.0757">obtenerNumeroLibre(): String</text><ellipse cx="1336.5" cy="368.0259" fill="#84BE84" rx="3" ry="3" style="stroke:#038048;stroke-width:1.0;"/><text fill="#000000" font-family="sans-serif" font-size="14" lengthAdjust="spacing" textLength="395" x="1345.5" y="371.3726">cambiarTipoGenerador(IEstrategiaGeneradora valor): void</text><ellipse cx="1336.5" cy="384.3228" fill="#84BE84" rx="3" ry="3" style="stroke:#038048;stroke-width:1.0;"/><text fill="#000000" font-family="sans-serif" font-size="14" lengthAdjust="spacing" textLength="212" x="1345.5" y="387.6695">eliminarLinea(String linea): void</text><ellipse cx="1336.5" cy="400.6197" fill="#84BE84" rx="3" ry="3" style="stroke:#038048;stroke-width:1.0;"/><text fill="#000000" font-family="sans-serif" font-size="14" lengthAdjust="spacing" textLength="219" x="1345.5" y="403.9664">getLineas(): SortedSet&lt;String&gt;</text></g><g id="elem_Empresa"><rect fill="#F1F1F1" height="183.1172" style="stroke:#181818;stroke-width:0.5;" width="430" x="737" y="7"/><text fill="#000000" font-family="sans-serif" font-size="14" lengthAdjust="spacing" textLength="61" x="921.5" y="21.9951">Empresa</text><line style="stroke:#181818;stroke-width:0.5;" x1="738" x2="1166" y1="27.2969" y2="27.2969"/><ellipse cx="748" cy="40.9453" fill="#84BE84" rx="3" ry="3" style="stroke:#038048;stroke-width:1.0;"/><text fill="#000000" font-family="sans-serif" font-size="14" lengthAdjust="spacing" textLength="307" x="757" y="44.292">agregarNumeroTelefono(String str): Boolean</text><ellipse cx="748" cy="57.2422" fill="#84BE84" rx="3" ry="3" style="stroke:#038048;stroke-width:1.0;"/><text fill="#000000" font-family="sans-serif" font-size="14" lengthAdjust="spacing" textLength="202" x="757" y="60.5889">obtenerNumeroLibre(): String</text><ellipse cx="748" cy="73.5391" fill="#84BE84" rx="3" ry="3" style="stroke:#038048;stroke-width:1.0;"/><text fill="#000000" font-family="sans-serif" font-size="14" lengthAdjust="spacing" textLength="242" x="757" y="76.8857">registrarUsuario(Cliente cli): Cliente</text><ellipse cx="748" cy="89.8359" fill="#84BE84" rx="3" ry="3" style="stroke:#038048;stroke-width:1.0;"/><text fill="#000000" font-family="sans-serif" font-size="14" lengthAdjust="spacing" textLength="404" x="757" y="93.1826">registrarLlamada(Cliente origen, Llamada llamada): Llamada</text><ellipse cx="748" cy="106.1328" fill="#84BE84" rx="3" ry="3" style="stroke:#038048;stroke-width:1.0;"/><text fill="#000000" font-family="sans-serif" font-size="14" lengthAdjust="spacing" textLength="341" x="757" y="109.4795">calcularMontoTotalLlamadas(Cliente cliente): Real</text><ellipse cx="748" cy="122.4297" fill="#84BE84" rx="3" ry="3" style="stroke:#038048;stroke-width:1.0;"/><text fill="#000000" font-family="sans-serif" font-size="14" lengthAdjust="spacing" textLength="207" x="757" y="125.7764">cantidadDeUsuarios(): Integer</text><ellipse cx="748" cy="138.7266" fill="#84BE84" rx="3" ry="3" style="stroke:#038048;stroke-width:1.0;"/><text fill="#000000" font-family="sans-serif" font-size="14" lengthAdjust="spacing" textLength="278" x="757" y="142.0732">existeUsuario(Cliente persona): Boolean</text><ellipse cx="748" cy="155.0234" fill="#84BE84" rx="3" ry="3" style="stroke:#038048;stroke-width:1.0;"/><text fill="#000000" font-family="sans-serif" font-size="14" lengthAdjust="spacing" textLength="343" x="757" y="158.3701">getGestorNumeros(): GestorNumerosDisponibles</text><line style="stroke:#181818;stroke-width:1.0;stroke-dasharray:1.0,2.0;" x1="738" x2="895" y1="173.8203" y2="173.8203"/><text fill="#000000" font-family="sans-serif" font-size="14" lengthAdjust="spacing" textLength="114" x="895" y="178.167">getters y setters</text><line style="stroke:#181818;stroke-width:1.0;stroke-dasharray:1.0,2.0;" x1="1009" x2="1166" y1="173.8203" y2="173.8203"/></g><!--reverse link Cliente to ClienteJuridico--><g id="link_Cliente_ClienteJuridico"><path codeLine="9" d="M532.2131,419.9518 C453.6931,453.4418 374.64,487.17 298.01,519.86 " fill="none" id="Cliente-backto-ClienteJuridico" style="stroke:#181818;stroke-width:1.0;"/><polygon fill="none" points="548.77,412.89,529.8592,414.4328,534.567,425.4707,548.77,412.89" style="stroke:#181818;stroke-width:1.0;"/></g><!--reverse link Cliente to ClienteFisico--><g id="link_Cliente_ClienteFisico"><path codeLine="19" d="M614.0065,443.0833 C587.3565,472.8633 569.68,492.61 545.14,520.05 " fill="none" id="Cliente-backto-ClienteFisico" style="stroke:#181818;stroke-width:1.0;"/><polygon fill="none" points="626.01,429.67,609.5354,439.0821,618.4776,447.0844,626.01,429.67" style="stroke:#181818;stroke-width:1.0;"/></g><!--reverse link Llamada to LlamadaInternacional--><g id="link_Llamada_LlamadaInternacional"><path codeLine="26" d="M690.0058,660.1151 C643.4658,680.9851 611.68,695.23 574.44,711.93 " fill="none" id="Llamada-backto-LlamadaInternacional" style="stroke:#181818;stroke-width:1.0;"/><polygon fill="none" points="706.43,652.75,687.5507,654.6404,692.4608,665.5899,706.43,652.75" style="stroke:#181818;stroke-width:1.0;"/></g><!--reverse link Llamada to LlamadaNacional--><g id="link_Llamada_LlamadaNacional"><path codeLine="32" d="M868,670.51 C868,691.5 868,695.26 868,712.03 " fill="none" id="Llamada-backto-LlamadaNacional" style="stroke:#181818;stroke-width:1.0;"/><polygon fill="none" points="868,652.51,862,670.51,874,670.51,868,652.51" style="stroke:#181818;stroke-width:1.0;"/></g><!--reverse link IEstrategiaGeneradora to ObtenerPrimero--><g id="link_IEstrategiaGeneradora_ObtenerPrimero"><path codeLine="42" d="M1633.7594,618.1587 C1547.6094,650.0487 1433.76,692.2 1358.65,720 " fill="none" id="IEstrategiaGeneradora-backto-ObtenerPrimero" style="stroke:#181818;stroke-width:1.0;"/><polygon fill="none" points="1650.64,611.91,1631.6765,612.5318,1635.8423,623.7855,1650.64,611.91" style="stroke:#181818;stroke-width:1.0;"/></g><!--reverse link IEstrategiaGeneradora to ObtenerUltimo--><g id="link_IEstrategiaGeneradora_ObtenerUltimo"><path codeLine="48" d="M1755.979,628.4354 C1769.229,660.3654 1782.48,692.28 1794.03,720.1 " fill="none" id="IEstrategiaGeneradora-backto-ObtenerUltimo" style="stroke:#181818;stroke-width:1.0;"/><polygon fill="none" points="1749.08,611.81,1750.4372,630.7351,1761.5208,626.1357,1749.08,611.81" style="stroke:#181818;stroke-width:1.0;"/></g><!--reverse link IEstrategiaGeneradora to ObtenerAleatorio--><g id="link_IEstrategiaGeneradora_ObtenerAleatorio"><path codeLine="54" d="M1864.9092,616.8137 C1977.5392,648.7037 2131.13,692.2 2229.33,720 " fill="none" id="IEstrategiaGeneradora-backto-ObtenerAleatorio" style="stroke:#181818;stroke-width:1.0;"/><polygon fill="none" points="1847.59,611.91,1863.2746,622.5868,1866.5437,611.0407,1847.59,611.91" style="stroke:#181818;stroke-width:1.0;"/></g><!--link GestorNumerosDisponibles to IEstrategiaGeneradora--><g id="link_GestorNumerosDisponibles_IEstrategiaGeneradora"><path codeLine="76" d="M1590.39,411.52 C1628.67,455.37 1674.3634,507.7107 1704.6834,542.4307 " fill="none" id="GestorNumerosDisponibles-to-IEstrategiaGeneradora" style="stroke:#181818;stroke-width:1.0;"/><polygon fill="#181818" points="1708.63,546.95,1705.723,537.5399,1705.3412,543.1839,1699.6972,542.8021,1708.63,546.95" style="stroke:#181818;stroke-width:1.0;"/><rect fill="none" height="6" style="stroke:#C82930;stroke-width:1.0;" width="6" x="1644" y="465.4064"/><text fill="#000000" font-family="sans-serif" font-size="13" lengthAdjust="spacing" textLength="92" x="1654" y="472.4069">tipoGenerador</text><text fill="#000000" font-family="sans-serif" font-size="13" lengthAdjust="spacing" textLength="8" x="1694.454" y="536.1828">1</text></g><!--link Llamada to Cliente--><g id="link_Llamada_Cliente"><path codeLine="99" d="M795.35,506.08 C786.78,496.38 778.45,486.33 771,476.34 C760.2,461.86 752.8321,450.7898 743.4021,434.8998 " fill="none" id="Llamada-to-Cliente" style="stroke:#181818;stroke-width:1.0;"/><polygon fill="#181818" points="740.34,429.74,741.4933,439.5211,742.8918,434.0398,748.373,435.4383,740.34,429.74" style="stroke:#181818;stroke-width:1.0;"/><rect fill="none" height="6" style="stroke:#C82930;stroke-width:1.0;" width="6" x="774" y="465.4064"/><text fill="#000000" font-family="sans-serif" font-size="13" lengthAdjust="spacing" textLength="40" x="784" y="472.4069">origen</text><text fill="#000000" font-family="sans-serif" font-size="13" lengthAdjust="spacing" textLength="8" x="735.6348" y="449.4625">1</text></g><!--link Llamada to Cliente--><g id="link_Llamada_Cliente"><path codeLine="100" d="M851.42,506.11 C845.82,489.92 838.49,473.39 829,459.34 C822.01,449 817.9193,443.443 809.0593,434.103 " fill="none" id="Llamada-to-Cliente-1" style="stroke:#181818;stroke-width:1.0;"/><polygon fill="#181818" points="804.93,429.75,808.222,439.0324,808.3711,433.3775,814.026,433.5267,804.93,429.75" style="stroke:#181818;stroke-width:1.0;"/><rect fill="none" height="6" style="stroke:#C82930;stroke-width:1.0;" width="6" x="841" y="465.4064"/><text fill="#000000" font-family="sans-serif" font-size="13" lengthAdjust="spacing" textLength="47" x="851" y="472.4069">destino</text><text fill="#000000" font-family="sans-serif" font-size="13" lengthAdjust="spacing" textLength="8" x="805.7755" y="449.4733">1</text></g><!--link Cliente to Llamada--><g id="link_Cliente_Llamada"><path codeLine="102" d="M670.8,429.79 C669.57,446.01 671.68,462.36 680,476.34 C686.55,487.35 690.4127,493.0941 699.7027,501.9741 " fill="none" id="Cliente-to-Llamada" style="stroke:#181818;stroke-width:1.0;"/><polygon fill="#181818" points="704.04,506.12,700.298,497.0097,700.4256,502.6651,694.7702,502.7927,704.04,506.12" style="stroke:#181818;stroke-width:1.0;"/><rect fill="none" height="6" style="stroke:#C82930;stroke-width:1.0;" width="6" x="683" y="465.4064"/><text fill="#000000" font-family="sans-serif" font-size="13" lengthAdjust="spacing" textLength="58" x="693" y="472.4069">llamadas</text><text fill="#000000" font-family="sans-serif" font-size="13" lengthAdjust="spacing" textLength="7" x="680.5557" y="495.251">*</text></g><!--link Empresa to Cliente--><g id="link_Empresa_Cliente"><path codeLine="104" d="M858.86,190.37 C833.24,215.36 809.9156,238.091 784.9256,262.461 " fill="none" id="Empresa-to-Cliente" style="stroke:#181818;stroke-width:1.0;"/><polygon fill="#181818" points="780.63,266.65,789.8661,263.2302,784.2097,263.1592,784.2807,257.5027,780.63,266.65" style="stroke:#181818;stroke-width:1.0;"/><rect fill="none" height="6" style="stroke:#C82930;stroke-width:1.0;" width="6" x="828" y="226.1764"/><text fill="#000000" font-family="sans-serif" font-size="13" lengthAdjust="spacing" textLength="49" x="838" y="233.1769">clientes</text><text fill="#000000" font-family="sans-serif" font-size="13" lengthAdjust="spacing" textLength="7" x="780.4302" y="256.0679">*</text></g><!--link Empresa to Llamada--><g id="link_Empresa_Llamada"><path codeLine="105" d="M947.43,190.51 C942.07,267.53 930.69,380.4 907,476.34 C904.59,486.09 903.4557,490.5042 900.0757,500.3642 " fill="none" id="Empresa-to-Llamada" style="stroke:#181818;stroke-width:1.0;"/><polygon fill="#181818" points="898.13,506.04,904.8323,498.8234,899.7514,501.3102,897.2646,496.2292,898.13,506.04" style="stroke:#181818;stroke-width:1.0;"/><rect fill="none" height="6" style="stroke:#C82930;stroke-width:1.0;" width="6" x="944" y="345.7964"/><text fill="#000000" font-family="sans-serif" font-size="13" lengthAdjust="spacing" textLength="58" x="954" y="352.7969">llamadas</text><text fill="#000000" font-family="sans-serif" font-size="13" lengthAdjust="spacing" textLength="7" x="893.7514" y="495.1631">*</text></g><!--link Empresa to GestorNumerosDisponibles--><g id="link_Empresa_GestorNumerosDisponibles"><path codeLine="106" d="M1166.56,190.55 C1240.42,221.87 1315.8862,253.8773 1383.1562,282.4073 " fill="none" id="Empresa-to-GestorNumerosDisponibles" style="stroke:#181818;stroke-width:1.0;"/><polygon fill="#181818" points="1388.68,284.75,1381.9562,277.5535,1384.0769,282.7978,1378.8326,284.9185,1388.68,284.75" style="stroke:#181818;stroke-width:1.0;"/><rect fill="none" height="6" style="stroke:#C82930;stroke-width:1.0;" width="6" x="1265" y="226.1764"/><text fill="#000000" font-family="sans-serif" font-size="13" lengthAdjust="spacing" textLength="27" x="1275" y="233.1769">guia</text><text fill="#000000" font-family="sans-serif" font-size="13" lengthAdjust="spacing" textLength="8" x="1364.1294" y="274.0608">1</text></g><!--SRC=[lLPHJzim47xthx3OIxlIIdj528bHXfWOGwFyW6joH9uSkx8TjAdhVzyviTqaJQDDR3mLn-Uxx_lkEnkz_ewPurTIe7BukJ8Y5vdUCZxFAk7E-ACpGXMqt5e7JcGxdgFDAWhM57p6lo58ncUzyvFc65UwN1iy3IkVSShukmBTCYQPt4ae8GSkczzfJBbOS8fpQ2p_oMtuQx5WEyP2CNx-Qpxl8sTCTnXz4ZRmoPKOfKEHVJhDuM4obEv_SMdA9YOXwotj60MPq0hajYdzO93MoyhKdoUfeD-xqjRfQwAvbXHK-inwYI5P2YK84NKDOQXO7ydzlmSnXE4-bHSUpJDao6yfbm67XO0RL6WWrmO8nsmBQx-JkPrUExzpNvLez9sWbarka524BtOfx4OhGO0iTSLlJ9ClTedgroRBWn7-aA_moho3o1k-tLfz24_IYV9j43Ib-W0k9GBb4c-38LLZBBQKvWAiZTFXPxaPnTOugxhw2YK-QwNt6t6IkpDCWpipXC6dDz6CXyFxeaLEaHd8h99WlcWoxqexa27Kjho-znz_xPKGr3ycg-SlXKAWw-fH6uVv8xhpXjy58xnG43S89wCaIO3wAy7ug3KfhOPREcqfc46v5c1MOgDJooR3VNm1MVSx28UI9bwHmXvj1513tyUG2FLshUKX7PBZgBtcymj-yk5a-4xWPtpksf2JhjVbng2jBurHfIZftyYK_FHaAo3xJkBDdab1SM4rPBmOIAOlK9toGyk4B-DURDNplybfT4OvaKE-n02jrjhVy0KQtwOVX0Vxi3TaIBfzEn9GiphTy7cEjMVKuht93XpgLpey8ss0nuIAQth2dL3wbDCxmME2QL-j_gFJdjcnLwmJzMVlMPjwGpZsD7esGYUNDcp68WA__JyBTSpxa-GKYWbciOm5VwUWLg9W3NiGCvIe4qE0ZiuX7Ieg0Ry1]--></g></svg>